{
  "accessors": [
    {
      "bufferView": 2,
      "componentType": 5126,
      "count": 2179,
      "max": [
        12.433300018310547,
        29.273199081420898,
        92.52850341796875
      ],
      "min": [
        -4.966400146484375,
        -29.273099899291992,
        -0.06419999897480011
      ],
      "type": "VEC3"
    },
    {
      "bufferView": 2,
      "byteOffset": 26148,
      "componentType": 5126,
      "count": 2179,
      "max": [
        0.99997889995574951,
        0.99998557567596436,
        0.99469184875488281
      ],
      "min": [
        -0.99840593338012695,
        -0.99998557567596436,
        -1
      ],
      "type": "VEC3"
    },
    {
      "bufferView": 3,
      "componentType": 5126,
      "count": 2179,
      "max": [
        0.99988490343093872,
        0.99999892711639404,
        0.99999707937240601,
        1
      ],
      "min": [
        -0.9996684193611145,
        -0.99999254941940308,
        -0.9960172176361084,
        -1
      ],
      "type": "VEC4"
    },
    {
      "bufferView": 1,
      "componentType": 5126,
      "count": 2179,
      "max": [
        1.725600004196167,
        0.97740000486373901
      ],
      "min": [
        0.0086000002920627594,
        0.025900000706315041
      ],
      "type": "VEC2"
    },
    {
      "bufferView": 0,
      "componentType": 5125,
      "count": 9999,
      "max": [
        2178
      ],
      "min": [
        0
      ],
      "type": "SCALAR"
    },
    {
      "bufferView": 2,
      "byteOffset": 52296,
      "componentType": 5126,
      "count": 2028,
      "max": [
        12.433300018310547,
        29.194000244140625,
        92.728401184082031
      ],
      "min": [
        -4.9656000137329102,
        -24.280300140380859,
        -0.06419999897480011
      ],
      "type": "VEC3"
    },
    {
      "bufferView": 2,
      "byteOffset": 76632,
      "componentType": 5126,
      "count": 2028,
      "max": [
        0.99964350461959839,
        0.99998557567596436,
        0.99912601709365845
      ],
      "min": [
        -0.99840593338012695,
        -0.99975293874740601,
        -1
      ],
      "type": "VEC3"
    },
    {
      "bufferView": 3,
      "byteOffset": 34864,
      "componentType": 5126,
      "count": 2028,
      "max": [
        0.99988353252410889,
        0.99999809265136719,
        0.99936866760253906,
        1
      ],
      "min": [
        -0.99929982423782349,
        -0.99999892711639404,
        -0.99354827404022217,
        -1
      ],
      "type": "VEC4"
    },
    {
      "bufferView": 1,
      "byteOffset": 17432,
      "componentType": 5126,
      "count": 2028,
      "max": [
        1.4658000469207764,
        0.97740000486373901
      ],
      "min": [
        0,
        0.022900000214576721
      ],
      "type": "VEC2"
    },
    {
      "bufferView": 0,
      "byteOffset": 39996,
      "componentType": 5125,
      "count": 9591,
      "max": [
        2027
      ],
      "min": [
        0
      ],
      "type": "SCALAR"
    }
  ],
  "asset": {
    "extras": {
      "author": "Carlos_Lemes_86 (https://sketchfab.com/Carlos_Lemes_86)",
      "license": "CC-BY-4.0 (http://creativecommons.org/licenses/by/4.0/)",
      "source": "https://sketchfab.com/models/6da23c62ede14dc9bfb434e7e3ecef3d",
      "title": "Spider Gwen"
    },
    "generator": "Sketchfab-3.18.5",
    "version": "2.0"
  },
  "bufferViews": [
    {
      "buffer": 0,
      "byteLength": 78360,
      "byteOffset": 0,
      "name": "floatBufferViews",
      "target": 34963
    },
    {
      "buffer": 0,
      "byteLength": 33656,
      "byteOffset": 78360,
      "byteStride": 8,
      "name": "floatBufferViews",
      "target": 34962
    },
    {
      "buffer": 0,
      "byteLength": 100968,
      "byteOffset": 112016,
      "byteStride": 12,
      "name": "floatBufferViews",
      "target": 34962
    },
    {
      "buffer": 0,
      "byteLength": 67312,
      "byteOffset": 212984,
      "byteStride": 16,
      "name": "floatBufferViews",
      "target": 34962
    }
  ],
  "buffers": [
    {
      "byteLength": 280296,
      "uri": "spider_gwen.bin"
    }
  ],
  "images": [
    {
      "uri": "textures/Material__35_baseColor.png"
    }
  ],
  "materials": [
    {
      "doubleSided": true,
      "emissiveFactor": [
        0,
        0,
        0
      ],
      "name": "Material__35",
      "pbrMetallicRoughness": {
        "baseColorFactor": [
          1,
          1,
          1,
          1
        ],
        "baseColorTexture": {
          "index": 0,
          "texCoord": 0
        },
        "metallicFactor": 0,
        "roughnessFactor": 0.59999999999999998
      }
    }
  ],
  "meshes": [
    {
      "primitives": [
        {
          "attributes": {
            "NORMAL": 1,
            "POSITION": 0,
            "TANGENT": 2,
            "TEXCOORD_0": 3
          },
          "indices": 4,
          "material": 0,
          "mode": 4
        }
      ]
    },
    {
      "primitives": [
        {
          "attributes": {
            "NORMAL": 6,
            "POSITION": 5,
            "TANGENT": 7,
            "TEXCOORD_0": 8
          },
          "indices": 9,
          "material": 0,
          "mode": 4
        }
      ]
    }
  ],
  "nodes": [
    {
      "children": [
        1
      ],
      "name": "RootNode (gltf orientation matrix)",
      "rotation": [
        -0.70710678118654746,
        -0,
        -0,
        0.70710678118654757
      ]
    },
    {
      "children": [
        2
      ],
      "name": "RootNode (model correction matrix)"
    },
    {
      "children": [
        3,
        4
      ],
      "name": "SpiderGwen.obj.cleaner.gles"
    },
    {
      "mesh": 0,
      "name": ""
    },
    {
      "mesh": 1,
      "name": ""
    }
  ],
  "samplers": [
    {
      "magFilter": 9729,
      "minFilter": 9987,
      "wrapS": 10497,
      "wrapT": 10497
    }
  ],
  "scene": 0,
  "scenes": [
    {
      "name": "OSG_Scene",
      "nodes": [
        0
      ]
    }
  ],
  "textures": [
    {
      "sampler": 0,
      "source": 0
    }
  ]
}

