{
  "accessors": [
    {
      "bufferView": 1,
      "componentType": 5126,
      "count": 29323,
      "max": [
        58.747409820556641,
        0.0457763671875,
        68.803329467773438
      ],
      "min": [
        7.2014517784118652,
        -86.764595031738281,
        3.3802399635314941
      ],
      "type": "VEC3"
    },
    {
      "bufferView": 1,
      "byteOffset": 351876,
      "componentType": 5126,
      "count": 29323,
      "max": [
        0.99993139505386353,
        0.99998247623443604,
        0.99994152784347534
      ],
      "min": [
        -0.99998462200164795,
        -0.99995905160903931,
        -0.99994724988937378
      ],
      "type": "VEC3"
    },
    {
      "bufferView": 0,
      "componentType": 5125,
      "count": 175926,
      "max": [
        29322
      ],
      "min": [
        0
      ],
      "type": "SCALAR"
    }
  ],
  "asset": {
    "extras": {
      "author": "Masterclip (https://sketchfab.com/masterclip)",
      "license": "CC-BY-4.0 (http://creativecommons.org/licenses/by/4.0/)",
      "source": "https://sketchfab.com/models/5b5b3015605b40809c12c2b3220815e8",
      "title": "FREE BLACK PANTHER V01 (Low-Poly Version)"
    },
    "generator": "Sketchfab-3.22.4",
    "version": "2.0"
  },
  "bufferViews": [
    {
      "buffer": 0,
      "byteLength": 703704,
      "byteOffset": 0,
      "name": "floatBufferViews",
      "target": 34963
    },
    {
      "buffer": 0,
      "byteLength": 703752,
      "byteOffset": 703704,
      "byteStride": 12,
      "name": "floatBufferViews",
      "target": 34962
    }
  ],
  "buffers": [
    {
      "byteLength": 1407456,
      "uri": "black_panther.bin"
    }
  ],
  "materials": [
    {
      "doubleSided": true,
      "emissiveFactor": [
        0,
        0,
        0
      ],
      "name": "material_0",
      "pbrMetallicRoughness": {
        "baseColorFactor": [
          0.017936086,
          0.018472316799999999,
          0.026383080400000002,
          1
        ],
        "metallicFactor": 0.2705208778,
        "roughnessFactor": 0.40177087779999998
      }
    }
  ],
  "meshes": [
    {
      "primitives": [
        {
          "attributes": {
            "NORMAL": 1,
            "POSITION": 0
          },
          "indices": 2,
          "material": 0,
          "mode": 4
        }
      ]
    }
  ],
  "nodes": [
    {
      "children": [
        1
      ],
      "name": "RootNode (gltf orientation matrix)",
      "rotation": [
        -0.70710678118654746,
        -0,
        -0,
        0.70710678118654757
      ]
    },
    {
      "children": [
        2
      ],
      "matrix": [
        -1,
        0,
        0,
        0,
        0,
        0,
        -1,
        0,
        0,
        -1,
        0,
        0,
        65.948997497558594,
        -7.2676024436950684,
        -7.2676024436950684,
        1
      ],
      "name": "RootNode (model correction matrix)"
    },
    {
      "children": [
        3
      ],
      "name": "Black_Panther_LOW-POLY_V03.obj.cleaner.materialmerger.gles"
    },
    {
      "mesh": 0,
      "name": ""
    }
  ],
  "scene": 0,
  "scenes": [
    {
      "name": "OSG_Scene",
      "nodes": [
        0
      ]
    }
  ]
}

