{
  "accessors": [
    {
      "bufferView": 2,
      "componentType": 5126,
      "count": 2882,
      "max": [
        164.435302734375,
        55.728218078613281,
        543.08026123046875
      ],
      "min": [
        -234.8153076171875,
        -51.284454345703125,
        -378.54806518554688
      ],
      "type": "VEC3"
    },
    {
      "bufferView": 2,
      "byteOffset": 34584,
      "componentType": 5126,
      "count": 2882,
      "max": [
        0.99999511241912842,
        0.99998229742050171,
        0.99940496683120728
      ],
      "min": [
        -0.99999886751174927,
        -0.99997508525848389,
        -0.99939078092575073
      ],
      "type": "VEC3"
    },
    {
      "bufferView": 3,
      "componentType": 5126,
      "count": 2882,
      "max": [
        0.99697917699813843,
        0.99999994039535522,
        0.99935770034790039,
        1
      ],
      "min": [
        -0.99731284379959106,
        -0.99954980611801147,
        -0.99999147653579712,
        -1
      ],
      "type": "VEC4"
    },
    {
      "bufferView": 1,
      "componentType": 5126,
      "count": 2882,
      "max": [
        0.92781001329421997,
        1
      ],
      "min": [
        0,
        0.0085150003433227539
      ],
      "type": "VEC2"
    },
    {
      "bufferView": 0,
      "componentType": 5125,
      "count": 13962,
      "max": [
        2881
      ],
      "min": [
        0
      ],
      "type": "SCALAR"
    }
  ],
  "asset": {
    "extras": {
      "author": "raj1631990 (https://sketchfab.com/raj1631990)",
      "license": "CC-BY-4.0 (http://creativecommons.org/licenses/by/4.0/)",
      "source": "https://sketchfab.com/models/00417a054c994fe7abbfc759549b6e38",
      "title": "Strom Breaker"
    },
    "generator": "Sketchfab-3.37.3",
    "version": "2.0"
  },
  "bufferViews": [
    {
      "buffer": 0,
      "byteLength": 55848,
      "byteOffset": 0,
      "name": "floatBufferViews",
      "target": 34963
    },
    {
      "buffer": 0,
      "byteLength": 23056,
      "byteOffset": 55848,
      "byteStride": 8,
      "name": "floatBufferViews",
      "target": 34962
    },
    {
      "buffer": 0,
      "byteLength": 69168,
      "byteOffset": 78904,
      "byteStride": 12,
      "name": "floatBufferViews",
      "target": 34962
    },
    {
      "buffer": 0,
      "byteLength": 46112,
      "byteOffset": 148072,
      "byteStride": 16,
      "name": "floatBufferViews",
      "target": 34962
    }
  ],
  "buffers": [
    {
      "byteLength": 194184,
      "uri": "storm_breaker.bin"
    }
  ],
  "images": [
    {
      "uri": "textures/Group_1_Merged_Material_baseColor.png"
    }
  ],
  "materials": [
    {
      "doubleSided": true,
      "emissiveFactor": [
        0,
        0,
        0
      ],
      "name": "Group_1_Merged_Material",
      "pbrMetallicRoughness": {
        "baseColorFactor": [
          1,
          1,
          1,
          1
        ],
        "baseColorTexture": {
          "index": 0,
          "texCoord": 0
        },
        "metallicFactor": 0.3187881098,
        "roughnessFactor": 0.18730945119999998
      }
    }
  ],
  "meshes": [
    {
      "primitives": [
        {
          "attributes": {
            "NORMAL": 1,
            "POSITION": 0,
            "TANGENT": 2,
            "TEXCOORD_0": 3
          },
          "indices": 4,
          "material": 0,
          "mode": 4
        }
      ]
    }
  ],
  "nodes": [
    {
      "children": [
        1
      ],
      "name": "RootNode (gltf orientation matrix)",
      "rotation": [
        -0.70710678118654746,
        -0,
        -0,
        0.70710678118654757
      ]
    },
    {
      "children": [
        2
      ],
      "name": "RootNode (model correction matrix)"
    },
    {
      "children": [
        3
      ],
      "name": "strombreaker for sketch fab.obj.cleaner.materialmerger.gles"
    },
    {
      "mesh": 0,
      "name": ""
    }
  ],
  "samplers": [
    {
      "magFilter": 9729,
      "minFilter": 9987,
      "wrapS": 10497,
      "wrapT": 10497
    }
  ],
  "scene": 0,
  "scenes": [
    {
      "name": "OSG_Scene",
      "nodes": [
        0
      ]
    }
  ],
  "textures": [
    {
      "sampler": 0,
      "source": 0
    }
  ]
}

