{
  "accessors": [
    {
      "bufferView": 2,
      "componentType": 5126,
      "count": 1312,
      "max": [
        2.8535864353179932,
        0.025000071153044701,
        1.162495493888855
      ],
      "min": [
        -2.8535864353179932,
        -0.025000082328915596,
        -0.81081920862197876
      ],
      "type": "VEC3"
    },
    {
      "bufferView": 2,
      "byteOffset": 15744,
      "componentType": 5126,
      "count": 1312,
      "max": [
        6.7373025558481459e-06,
        1,
        1.8527948668634053e-06
      ],
      "min": [
        -6.7379337451711763e-06,
        -1,
        -2.2240606085688341e-06
      ],
      "type": "VEC3"
    },
    {
      "bufferView": 1,
      "componentType": 5126,
      "count": 1312,
      "max": [
        1.0000001192092896,
        1.099748969078064
      ],
      "min": [
        0.47391778230667114,
        -0.033895011991262436
      ],
      "type": "VEC2"
    },
    {
      "bufferView": 0,
      "componentType": 5125,
      "count": 2340,
      "max": [
        1311
      ],
      "min": [
        0
      ],
      "type": "SCALAR"
    },
    {
      "bufferView": 2,
      "byteOffset": 31488,
      "componentType": 5126,
      "count": 1960,
      "max": [
        3.0047881603240967,
        0.02500007301568985,
        1.2140979766845703
      ],
      "min": [
        -3.0047876834869385,
        -0.025000084191560745,
        -0.8386504054069519
      ],
      "type": "VEC3"
    },
    {
      "bufferView": 2,
      "byteOffset": 55008,
      "componentType": 5126,
      "count": 1960,
      "max": [
        0.99999219179153442,
        1,
        1
      ],
      "min": [
        -1,
        -0.19007816910743713,
        -1
      ],
      "type": "VEC3"
    },
    {
      "bufferView": 1,
      "byteOffset": 10496,
      "componentType": 5126,
      "count": 1960,
      "max": [
        1.0000001192092896,
        1.0243452787399292
      ],
      "min": [
        0,
        -0.025730282068252563
      ],
      "type": "VEC2"
    },
    {
      "bufferView": 0,
      "byteOffset": 9360,
      "componentType": 5125,
      "count": 4443,
      "max": [
        1959
      ],
      "min": [
        0
      ],
      "type": "SCALAR"
    }
  ],
  "asset": {
    "extras": {
      "author": "ABSoln (https://sketchfab.com/Abu.Bakar.Siddik.Alif)",
      "license": "CC-BY-NC-4.0 (http://creativecommons.org/licenses/by-nc/4.0/)",
      "source": "https://sketchfab.com/3d-models/batman-the-dark-knight-batarang-2e6dd1210c054b65aa12ff4e969c4f26",
      "title": "Batman The Dark Knight Batarang"
    },
    "generator": "Sketchfab-9.11.0",
    "version": "2.0"
  },
  "bufferViews": [
    {
      "buffer": 0,
      "byteLength": 27132,
      "byteOffset": 0,
      "name": "floatBufferViews",
      "target": 34963
    },
    {
      "buffer": 0,
      "byteLength": 26176,
      "byteOffset": 27132,
      "byteStride": 8,
      "name": "floatBufferViews",
      "target": 34962
    },
    {
      "buffer": 0,
      "byteLength": 78528,
      "byteOffset": 53308,
      "byteStride": 12,
      "name": "floatBufferViews",
      "target": 34962
    }
  ],
  "buffers": [
    {
      "byteLength": 131836,
      "uri": "batarang.bin"
    }
  ],
  "materials": [
    {
      "doubleSided": true,
      "emissiveFactor": [
        0,
        0,
        0
      ],
      "name": "Material.001",
      "pbrMetallicRoughness": {
        "baseColorFactor": [
          0.087140400000000007,
          0.087140400000000007,
          0.087140400000000007,
          1
        ],
        "metallicFactor": 1,
        "roughnessFactor": 0.10000000000000001
      }
    },
    {
      "doubleSided": true,
      "emissiveFactor": [
        0,
        0,
        0
      ],
      "name": "Material.002",
      "pbrMetallicRoughness": {
        "baseColorFactor": [
          1,
          1,
          1,
          1
        ],
        "metallicFactor": 0.9015756768752774,
        "roughnessFactor": 0.34771142282132195
      }
    }
  ],
  "meshes": [
    {
      "primitives": [
        {
          "attributes": {
            "NORMAL": 1,
            "POSITION": 0,
            "TEXCOORD_0": 2
          },
          "indices": 3,
          "material": 0,
          "mode": 4
        }
      ]
    },
    {
      "primitives": [
        {
          "attributes": {
            "NORMAL": 5,
            "POSITION": 4,
            "TEXCOORD_0": 6
          },
          "indices": 7,
          "material": 1,
          "mode": 4
        }
      ]
    }
  ],
  "nodes": [
    {
      "children": [
        1
      ],
      "name": "RootNode (gltf orientation matrix)",
      "rotation": [
        -0.70710678118654746,
        -0,
        -0,
        0.70710678118654757
      ]
    },
    {
      "children": [
        2
      ],
      "name": "RootNode (model correction matrix)"
    },
    {
      "children": [
        3
      ],
      "name": "root"
    },
    {
      "children": [
        4
      ],
      "matrix": [
        1,
        0,
        0,
        0,
        0,
        2.2204460492503131e-16,
        1,
        0,
        0,
        -1,
        2.2204460492503131e-16,
        0,
        0,
        0,
        0,
        1
      ],
      "name": "GLTF_SceneRootNode"
    },
    {
      "children": [
        5,
        6
      ],
      "matrix": [
        0.19999998807907104,
        0,
        0,
        0,
        0,
        0,
        0.099999994039535522,
        0,
        0,
        -0.19999998807907104,
        0,
        0,
        0,
        0,
        0,
        1
      ],
      "name": "Plane_2"
    },
    {
      "mesh": 0,
      "name": ""
    },
    {
      "mesh": 1,
      "name": ""
    }
  ],
  "scene": 0,
  "scenes": [
    {
      "name": "OSG_Scene",
      "nodes": [
        0
      ]
    }
  ]
}

