{
  "accessors": [
    {
      "bufferView": 2,
      "componentType": 5126,
      "count": 41060,
      "max": [
        0.74547797441482544,
        0.30914598703384399,
        1.5272990465164185
      ],
      "min": [
        -0.74547797441482544,
        -0.12689100205898285,
        0.00075399997876957059
      ],
      "type": "VEC3"
    },
    {
      "bufferView": 2,
      "byteOffset": 492720,
      "componentType": 5126,
      "count": 41060,
      "max": [
        0.99999451637268066,
        0.99990880489349365,
        0.99999713897705078
      ],
      "min": [
        -0.99999451637268066,
        -0.99997627735137939,
        -0.99999725818634033
      ],
      "type": "VEC3"
    },
    {
      "bufferView": 1,
      "componentType": 5126,
      "count": 41060,
      "max": [
        0.99769997596740723,
        0.99580001831054688
      ],
      "min": [
        0.0023000000510364771,
        0.00139999995008111
      ],
      "type": "VEC2"
    },
    {
      "bufferView": 0,
      "componentType": 5125,
      "count": 72402,
      "max": [
        41059
      ],
      "min": [
        0
      ],
      "type": "SCALAR"
    },
    {
      "bufferView": 2,
      "byteOffset": 985440,
      "componentType": 5126,
      "count": 7607,
      "max": [
        0.076978996396064758,
        0.13328100740909576,
        1.5416140556335449
      ],
      "min": [
        -0.072639003396034241,
        -0.045997999608516693,
        1.422340989112854
      ],
      "type": "VEC3"
    },
    {
      "bufferView": 2,
      "byteOffset": 1076724,
      "componentType": 5126,
      "count": 7607,
      "max": [
        0.99855643510818481,
        0.99524837732315063,
        0.99947148561477661
      ],
      "min": [
        -0.99631470441818237,
        -0.99978739023208618,
        -0.9996294379234314
      ],
      "type": "VEC3"
    },
    {
      "bufferView": 1,
      "byteOffset": 328480,
      "componentType": 5126,
      "count": 7607,
      "max": [
        1.9866000413894653,
        0.9944000244140625
      ],
      "min": [
        1.0025999546051025,
        0.0026000000070780516
      ],
      "type": "VEC2"
    },
    {
      "bufferView": 0,
      "byteOffset": 289608,
      "componentType": 5125,
      "count": 8937,
      "max": [
        7606
      ],
      "min": [
        0
      ],
      "type": "SCALAR"
    },
    {
      "bufferView": 2,
      "byteOffset": 1168008,
      "componentType": 5126,
      "count": 3792,
      "max": [
        0.073352999985218048,
        0.13533000648021698,
        1.5460120439529419
      ],
      "min": [
        -0.073922999203205109,
        -0.045387998223304749,
        1.4545389413833618
      ],
      "type": "VEC3"
    },
    {
      "bufferView": 2,
      "byteOffset": 1213512,
      "componentType": 5126,
      "count": 3792,
      "max": [
        0.9999690055847168,
        0.9999469518661499,
        0.99959534406661987
      ],
      "min": [
        -0.99949353933334351,
        -0.99973839521408081,
        -0.99923443794250488
      ],
      "type": "VEC3"
    },
    {
      "bufferView": 1,
      "byteOffset": 389336,
      "componentType": 5126,
      "count": 3792,
      "max": [
        0.97439998388290405,
        0.98500001430511475
      ],
      "min": [
        0.026100000366568565,
        0.01269999984651804
      ],
      "type": "VEC2"
    },
    {
      "bufferView": 0,
      "byteOffset": 325356,
      "componentType": 5125,
      "count": 6228,
      "max": [
        3791
      ],
      "min": [
        0
      ],
      "type": "SCALAR"
    }
  ],
  "asset": {
    "extras": {
      "author": "Lil_CJ (https://sketchfab.com/calebjean2001)",
      "license": "CC-BY-4.0 (http://creativecommons.org/licenses/by/4.0/)",
      "source": "https://sketchfab.com/3d-models/hulk-e558513566e7483faee3495a93ddca1c",
      "title": "Hulk"
    },
    "generator": "Sketchfab-8.9.0",
    "version": "2.0"
  },
  "bufferViews": [
    {
      "buffer": 0,
      "byteLength": 350268,
      "byteOffset": 0,
      "name": "floatBufferViews",
      "target": 34963
    },
    {
      "buffer": 0,
      "byteLength": 419672,
      "byteOffset": 350268,
      "byteStride": 8,
      "name": "floatBufferViews",
      "target": 34962
    },
    {
      "buffer": 0,
      "byteLength": 1259016,
      "byteOffset": 769940,
      "byteStride": 12,
      "name": "floatBufferViews",
      "target": 34962
    }
  ],
  "buffers": [
    {
      "byteLength": 2028956,
      "uri": "hulk.bin"
    }
  ],
  "images": [
    {
      "uri": "textures_hulk/40_mesh3_0_0_0_baseColor.png"
    },
    {
      "uri": "textures_hulk/40_mesh3_0_0_0_metallicRoughness.png"
    },
    {
      "uri": "textures_hulk/41_mesh1_0_0_0_root_root_baseColor.png"
    },
    {
      "uri": "textures_hulk/41_mesh1_0_0_0_root_root_metallicRoughness.png"
    },
    {
      "uri": "textures_hulk/41_mesh2_0_0_0_baseColor.png"
    }
  ],
  "materials": [
    {
      "doubleSided": true,
      "name": "40_mesh3_0_0_0",
      "pbrMetallicRoughness": {
        "baseColorFactor": [
          1,
          1,
          1,
          1
        ],
        "baseColorTexture": {
          "index": 0,
          "texCoord": 0
        },
        "metallicFactor": 1,
        "metallicRoughnessTexture": {
          "index": 1,
          "texCoord": 0
        },
        "roughnessFactor": 0.59999999999999998
      }
    },
    {
      "doubleSided": true,
      "name": "41_mesh1_0_0_0_root_root",
      "pbrMetallicRoughness": {
        "baseColorFactor": [
          1,
          1,
          1,
          1
        ],
        "baseColorTexture": {
          "index": 2,
          "texCoord": 0
        },
        "metallicFactor": 1,
        "metallicRoughnessTexture": {
          "index": 3,
          "texCoord": 0
        },
        "roughnessFactor": 0.59999999999999998
      }
    },
    {
      "doubleSided": true,
      "name": "41_mesh2_0_0_0",
      "pbrMetallicRoughness": {
        "baseColorFactor": [
          1,
          1,
          1,
          1
        ],
        "baseColorTexture": {
          "index": 4,
          "texCoord": 0
        },
        "metallicFactor": 0,
        "roughnessFactor": 0.59999999999999998
      }
    }
  ],
  "meshes": [
    {
      "primitives": [
        {
          "attributes": {
            "NORMAL": 1,
            "POSITION": 0,
            "TEXCOORD_0": 2
          },
          "indices": 3,
          "material": 0,
          "mode": 4
        }
      ]
    },
    {
      "primitives": [
        {
          "attributes": {
            "NORMAL": 5,
            "POSITION": 4,
            "TEXCOORD_0": 6
          },
          "indices": 7,
          "material": 1,
          "mode": 4
        }
      ]
    },
    {
      "primitives": [
        {
          "attributes": {
            "NORMAL": 9,
            "POSITION": 8,
            "TEXCOORD_0": 10
          },
          "indices": 11,
          "material": 2,
          "mode": 4
        }
      ]
    }
  ],
  "nodes": [
    {
      "children": [
        1
      ],
      "name": "RootNode (gltf orientation matrix)",
      "rotation": [
        -0.70710678118654746,
        -0,
        -0,
        0.70710678118654757
      ]
    },
    {
      "children": [
        2
      ],
      "name": "RootNode (model correction matrix)"
    },
    {
      "children": [
        3,
        4,
        5
      ],
      "name": "0.obj.cleaner.materialmerger.gles"
    },
    {
      "mesh": 0,
      "name": ""
    },
    {
      "mesh": 1,
      "name": ""
    },
    {
      "mesh": 2,
      "name": ""
    }
  ],
  "samplers": [
    {
      "magFilter": 9729,
      "minFilter": 9987,
      "wrapS": 10497,
      "wrapT": 10497
    }
  ],
  "scene": 0,
  "scenes": [
    {
      "name": "OSG_Scene",
      "nodes": [
        0
      ]
    }
  ],
  "textures": [
    {
      "sampler": 0,
      "source": 0
    },
    {
      "sampler": 0,
      "source": 1
    },
    {
      "sampler": 0,
      "source": 2
    },
    {
      "sampler": 0,
      "source": 3
    },
    {
      "sampler": 0,
      "source": 4
    }
  ]
}

